<mxfile host="app.diagrams.net" modified="2020-10-28T04:21:37.983Z" agent="5.0 (Windows NT 10.0; Win64; x64) AppleWebKit/537.36 (KHTML, like Gecko) Chrome/85.0.4183.121 Safari/537.36 OPR/71.0.3770.287" etag="n5Mao4SmN6CkE-dOAaYz" version="13.8.5" type="github">
  <diagram name="Page-1" id="b520641d-4fe3-3701-9064-5fc419738815">
    <mxGraphModel dx="3402" dy="1337" grid="1" gridSize="10" guides="1" tooltips="1" connect="1" arrows="1" fold="1" page="1" pageScale="1" pageWidth="1100" pageHeight="850" background="#ffffff" math="0" shadow="0">
      <root>
        <mxCell id="0" />
        <mxCell id="1" parent="0" />
        <mxCell id="2debaab0fafb2da2-10" value="INT HORA&lt;br&gt;INT MINUTO" style="html=1;rounded=0;shadow=0;comic=0;labelBackgroundColor=none;strokeWidth=2;fontFamily=Verdana;fontSize=12;align=left;shape=mxgraph.ios7ui.horLines;" parent="1" vertex="1">
          <mxGeometry x="-1010" y="230" width="135" height="50" as="geometry" />
        </mxCell>
        <mxCell id="UBKxjJVdo7yGN5d3mwRM-1" value="INT NUM_SAKA&lt;br&gt;CHAR TITULO[40]&lt;br&gt;HORAS HORARIO&lt;br&gt;INT BUTACAS[15][20]&lt;br&gt;STRING PORTADA" style="html=1;rounded=0;shadow=0;comic=0;labelBackgroundColor=none;strokeWidth=2;fontFamily=Verdana;fontSize=12;align=left;shape=mxgraph.ios7ui.horLines;" vertex="1" parent="1">
          <mxGeometry x="-530" y="230" width="150" height="166" as="geometry" />
        </mxCell>
        <mxCell id="UBKxjJVdo7yGN5d3mwRM-2" value="INT SALA&lt;br&gt;INT CLASIFICACION&lt;br&gt;HORAS HORARIO[5]&lt;br&gt;CHAR TITULO[40]&lt;br&gt;STRING DESCRIPCION[100]&lt;br&gt;STRING PORTADA&lt;br&gt;CHAR DIRECTOR&lt;br&gt;INT GENERO" style="html=1;rounded=0;shadow=0;comic=0;labelBackgroundColor=none;strokeWidth=2;fontFamily=Verdana;fontSize=12;align=left;shape=mxgraph.ios7ui.horLines;" vertex="1" parent="1">
          <mxGeometry x="-810" y="230" width="210" height="166" as="geometry" />
        </mxCell>
        <mxCell id="UBKxjJVdo7yGN5d3mwRM-3" value="" style="endArrow=classic;html=1;" edge="1" parent="1" source="2debaab0fafb2da2-10" target="UBKxjJVdo7yGN5d3mwRM-2">
          <mxGeometry width="50" height="50" relative="1" as="geometry">
            <mxPoint x="-380" y="430" as="sourcePoint" />
            <mxPoint x="-330" y="380" as="targetPoint" />
          </mxGeometry>
        </mxCell>
        <mxCell id="UBKxjJVdo7yGN5d3mwRM-4" value="" style="endArrow=classic;html=1;exitX=1.01;exitY=0.404;exitDx=0;exitDy=0;exitPerimeter=0;entryX=0.007;entryY=0.518;entryDx=0;entryDy=0;entryPerimeter=0;" edge="1" parent="1" source="UBKxjJVdo7yGN5d3mwRM-2" target="UBKxjJVdo7yGN5d3mwRM-1">
          <mxGeometry width="50" height="50" relative="1" as="geometry">
            <mxPoint x="-380" y="430" as="sourcePoint" />
            <mxPoint x="-330" y="380" as="targetPoint" />
          </mxGeometry>
        </mxCell>
        <mxCell id="UBKxjJVdo7yGN5d3mwRM-5" value="INT DNI&lt;br&gt;INT SALA&lt;br&gt;INT HORARIO&lt;br&gt;INT PRECIO&lt;br&gt;INT CODIGO&lt;br&gt;BOOL PAGADO&lt;br&gt;BOOL CANCELADO&lt;br&gt;INT ESTADO&lt;br&gt;FECHA FECHA_NAC&lt;br&gt;STRING NOMBRE&lt;br&gt;STRING APELLIDO&lt;br&gt;CHAR TITULO[40]" style="html=1;rounded=0;shadow=0;comic=0;labelBackgroundColor=none;strokeWidth=2;fontFamily=Verdana;fontSize=12;align=left;shape=mxgraph.ios7ui.horLines;" vertex="1" parent="1">
          <mxGeometry x="-810" y="505" width="210" height="250" as="geometry" />
        </mxCell>
        <mxCell id="UBKxjJVdo7yGN5d3mwRM-6" value="INT DIA&lt;br&gt;INT MES&lt;br&gt;INT AÃ‘O" style="html=1;rounded=0;shadow=0;comic=0;labelBackgroundColor=none;strokeWidth=2;fontFamily=Verdana;fontSize=12;align=left;shape=mxgraph.ios7ui.horLines;" vertex="1" parent="1">
          <mxGeometry x="-1007.5" y="490" width="135" height="70" as="geometry" />
        </mxCell>
        <mxCell id="UBKxjJVdo7yGN5d3mwRM-7" value="" style="endArrow=classic;html=1;exitX=1.022;exitY=0.486;exitDx=0;exitDy=0;exitPerimeter=0;" edge="1" parent="1" source="UBKxjJVdo7yGN5d3mwRM-6" target="UBKxjJVdo7yGN5d3mwRM-5">
          <mxGeometry width="50" height="50" relative="1" as="geometry">
            <mxPoint x="-870" y="470" as="sourcePoint" />
            <mxPoint x="-330" y="340" as="targetPoint" />
          </mxGeometry>
        </mxCell>
        <mxCell id="UBKxjJVdo7yGN5d3mwRM-12" value="MENU PRINCIPAL()" style="swimlane;html=1;fontStyle=0;childLayout=stackLayout;horizontal=1;startSize=26;fillColor=#e0e0e0;horizontalStack=0;resizeParent=1;resizeLast=0;collapsible=1;marginBottom=0;swimlaneFillColor=#ffffff;align=center;rounded=1;shadow=0;comic=0;labelBackgroundColor=none;strokeWidth=1;fontFamily=Verdana;fontSize=12" vertex="1" parent="1">
          <mxGeometry x="50" y="126" width="160" height="182" as="geometry" />
        </mxCell>
        <mxCell id="UBKxjJVdo7yGN5d3mwRM-13" value="menuCartelera()" style="text;html=1;strokeColor=none;fillColor=none;spacingLeft=4;spacingRight=4;whiteSpace=wrap;overflow=hidden;rotatable=0;points=[[0,0.5],[1,0.5]];portConstraint=eastwest;" vertex="1" parent="UBKxjJVdo7yGN5d3mwRM-12">
          <mxGeometry y="26" width="160" height="26" as="geometry" />
        </mxCell>
        <mxCell id="UBKxjJVdo7yGN5d3mwRM-23" value="verCartelera()" style="text;html=1;strokeColor=none;fillColor=none;spacingLeft=4;spacingRight=4;whiteSpace=wrap;overflow=hidden;rotatable=0;points=[[0,0.5],[1,0.5]];portConstraint=eastwest;" vertex="1" parent="UBKxjJVdo7yGN5d3mwRM-12">
          <mxGeometry y="52" width="160" height="26" as="geometry" />
        </mxCell>
        <mxCell id="UBKxjJVdo7yGN5d3mwRM-16" value="comprar()" style="text;html=1;strokeColor=none;fillColor=none;spacingLeft=4;spacingRight=4;whiteSpace=wrap;overflow=hidden;rotatable=0;points=[[0,0.5],[1,0.5]];portConstraint=eastwest;" vertex="1" parent="UBKxjJVdo7yGN5d3mwRM-12">
          <mxGeometry y="78" width="160" height="26" as="geometry" />
        </mxCell>
        <mxCell id="UBKxjJVdo7yGN5d3mwRM-15" value="reservar()" style="text;html=1;strokeColor=none;fillColor=none;spacingLeft=4;spacingRight=4;whiteSpace=wrap;overflow=hidden;rotatable=0;points=[[0,0.5],[1,0.5]];portConstraint=eastwest;" vertex="1" parent="UBKxjJVdo7yGN5d3mwRM-12">
          <mxGeometry y="104" width="160" height="26" as="geometry" />
        </mxCell>
        <mxCell id="UBKxjJVdo7yGN5d3mwRM-54" value="retirarcompra()" style="text;html=1;strokeColor=none;fillColor=none;spacingLeft=4;spacingRight=4;whiteSpace=wrap;overflow=hidden;rotatable=0;points=[[0,0.5],[1,0.5]];portConstraint=eastwest;" vertex="1" parent="UBKxjJVdo7yGN5d3mwRM-12">
          <mxGeometry y="130" width="160" height="26" as="geometry" />
        </mxCell>
        <mxCell id="UBKxjJVdo7yGN5d3mwRM-24" value="salir()" style="text;html=1;strokeColor=none;fillColor=none;spacingLeft=4;spacingRight=4;whiteSpace=wrap;overflow=hidden;rotatable=0;points=[[0,0.5],[1,0.5]];portConstraint=eastwest;" vertex="1" parent="UBKxjJVdo7yGN5d3mwRM-12">
          <mxGeometry y="156" width="160" height="26" as="geometry" />
        </mxCell>
        <mxCell id="UBKxjJVdo7yGN5d3mwRM-17" value="HORAS" style="rounded=0;whiteSpace=wrap;html=1;" vertex="1" parent="1">
          <mxGeometry x="-1010" y="180" width="140" height="30" as="geometry" />
        </mxCell>
        <mxCell id="UBKxjJVdo7yGN5d3mwRM-19" value="CARTELERA" style="rounded=0;whiteSpace=wrap;html=1;" vertex="1" parent="1">
          <mxGeometry x="-810" y="180" width="210" height="30" as="geometry" />
        </mxCell>
        <mxCell id="UBKxjJVdo7yGN5d3mwRM-20" value="SALA" style="rounded=0;whiteSpace=wrap;html=1;" vertex="1" parent="1">
          <mxGeometry x="-530" y="180" width="150" height="30" as="geometry" />
        </mxCell>
        <mxCell id="UBKxjJVdo7yGN5d3mwRM-21" value="FECHA" style="rounded=0;whiteSpace=wrap;html=1;" vertex="1" parent="1">
          <mxGeometry x="-1010" y="430" width="140" height="30" as="geometry" />
        </mxCell>
        <mxCell id="UBKxjJVdo7yGN5d3mwRM-22" value="CLIENTE" style="rounded=0;whiteSpace=wrap;html=1;" vertex="1" parent="1">
          <mxGeometry x="-810" y="430" width="210" height="30" as="geometry" />
        </mxCell>
        <mxCell id="UBKxjJVdo7yGN5d3mwRM-25" value="MENU CARTELERA()" style="swimlane;html=1;fontStyle=0;childLayout=stackLayout;horizontal=1;startSize=26;fillColor=#e0e0e0;horizontalStack=0;resizeParent=1;resizeLast=0;collapsible=1;marginBottom=0;swimlaneFillColor=#ffffff;align=center;rounded=1;shadow=0;comic=0;labelBackgroundColor=none;strokeWidth=1;fontFamily=Verdana;fontSize=12" vertex="1" parent="1">
          <mxGeometry x="430" y="100" width="160" height="180" as="geometry" />
        </mxCell>
        <mxCell id="UBKxjJVdo7yGN5d3mwRM-26" value="cargarPelicula()" style="text;html=1;strokeColor=none;fillColor=none;spacingLeft=4;spacingRight=4;whiteSpace=wrap;overflow=hidden;rotatable=0;points=[[0,0.5],[1,0.5]];portConstraint=eastwest;" vertex="1" parent="UBKxjJVdo7yGN5d3mwRM-25">
          <mxGeometry y="26" width="160" height="26" as="geometry" />
        </mxCell>
        <mxCell id="UBKxjJVdo7yGN5d3mwRM-27" value="modificarPelicula()" style="text;html=1;strokeColor=none;fillColor=none;spacingLeft=4;spacingRight=4;whiteSpace=wrap;overflow=hidden;rotatable=0;points=[[0,0.5],[1,0.5]];portConstraint=eastwest;" vertex="1" parent="UBKxjJVdo7yGN5d3mwRM-25">
          <mxGeometry y="52" width="160" height="26" as="geometry" />
        </mxCell>
        <mxCell id="UBKxjJVdo7yGN5d3mwRM-28" value="Sala()" style="text;html=1;strokeColor=none;fillColor=none;spacingLeft=4;spacingRight=4;whiteSpace=wrap;overflow=hidden;rotatable=0;points=[[0,0.5],[1,0.5]];portConstraint=eastwest;" vertex="1" parent="UBKxjJVdo7yGN5d3mwRM-25">
          <mxGeometry y="78" width="160" height="26" as="geometry" />
        </mxCell>
        <mxCell id="UBKxjJVdo7yGN5d3mwRM-30" value="Volver()" style="text;html=1;strokeColor=none;fillColor=none;spacingLeft=4;spacingRight=4;whiteSpace=wrap;overflow=hidden;rotatable=0;points=[[0,0.5],[1,0.5]];portConstraint=eastwest;" vertex="1" parent="UBKxjJVdo7yGN5d3mwRM-25">
          <mxGeometry y="104" width="160" height="26" as="geometry" />
        </mxCell>
        <mxCell id="UBKxjJVdo7yGN5d3mwRM-33" style="edgeStyle=orthogonalEdgeStyle;rounded=0;orthogonalLoop=1;jettySize=auto;html=1;exitX=0;exitY=0.5;exitDx=0;exitDy=0;entryX=0.5;entryY=0;entryDx=0;entryDy=0;" edge="1" parent="1" source="UBKxjJVdo7yGN5d3mwRM-30" target="UBKxjJVdo7yGN5d3mwRM-12">
          <mxGeometry relative="1" as="geometry">
            <Array as="points">
              <mxPoint x="360" y="217" />
              <mxPoint x="360" y="50" />
              <mxPoint x="130" y="50" />
            </Array>
          </mxGeometry>
        </mxCell>
        <mxCell id="UBKxjJVdo7yGN5d3mwRM-34" style="edgeStyle=orthogonalEdgeStyle;rounded=0;orthogonalLoop=1;jettySize=auto;html=1;exitX=1;exitY=0.5;exitDx=0;exitDy=0;entryX=0.5;entryY=0;entryDx=0;entryDy=0;" edge="1" parent="1" source="UBKxjJVdo7yGN5d3mwRM-13" target="UBKxjJVdo7yGN5d3mwRM-25">
          <mxGeometry relative="1" as="geometry">
            <Array as="points">
              <mxPoint x="400" y="165" />
              <mxPoint x="400" y="50" />
              <mxPoint x="510" y="50" />
            </Array>
          </mxGeometry>
        </mxCell>
        <mxCell id="UBKxjJVdo7yGN5d3mwRM-41" style="edgeStyle=orthogonalEdgeStyle;rounded=0;orthogonalLoop=1;jettySize=auto;html=1;exitX=1;exitY=0.5;exitDx=0;exitDy=0;entryX=0;entryY=0.5;entryDx=0;entryDy=0;" edge="1" parent="1" source="UBKxjJVdo7yGN5d3mwRM-26" target="UBKxjJVdo7yGN5d3mwRM-95">
          <mxGeometry relative="1" as="geometry">
            <mxPoint x="750" y="73" as="targetPoint" />
            <Array as="points">
              <mxPoint x="640" y="139" />
              <mxPoint x="640" y="56" />
            </Array>
          </mxGeometry>
        </mxCell>
        <mxCell id="UBKxjJVdo7yGN5d3mwRM-48" style="edgeStyle=orthogonalEdgeStyle;rounded=0;orthogonalLoop=1;jettySize=auto;html=1;exitX=1;exitY=0.5;exitDx=0;exitDy=0;entryX=0;entryY=0.5;entryDx=0;entryDy=0;" edge="1" parent="1" source="UBKxjJVdo7yGN5d3mwRM-23" target="UBKxjJVdo7yGN5d3mwRM-62">
          <mxGeometry relative="1" as="geometry">
            <mxPoint x="350" y="329" as="targetPoint" />
            <Array as="points">
              <mxPoint x="320" y="191" />
              <mxPoint x="320" y="360" />
            </Array>
          </mxGeometry>
        </mxCell>
        <mxCell id="UBKxjJVdo7yGN5d3mwRM-70" style="edgeStyle=orthogonalEdgeStyle;rounded=0;orthogonalLoop=1;jettySize=auto;html=1;exitX=1;exitY=0.5;exitDx=0;exitDy=0;entryX=0;entryY=0.5;entryDx=0;entryDy=0;" edge="1" parent="1" source="UBKxjJVdo7yGN5d3mwRM-56" target="UBKxjJVdo7yGN5d3mwRM-69">
          <mxGeometry relative="1" as="geometry">
            <Array as="points">
              <mxPoint x="680" y="510" />
              <mxPoint x="680" y="440" />
            </Array>
          </mxGeometry>
        </mxCell>
        <mxCell id="UBKxjJVdo7yGN5d3mwRM-56" value="generarcodigo()" style="shape=parallelogram;perimeter=parallelogramPerimeter;whiteSpace=wrap;html=1;fixedSize=1;" vertex="1" parent="1">
          <mxGeometry x="430" y="490" width="160" height="40" as="geometry" />
        </mxCell>
        <mxCell id="UBKxjJVdo7yGN5d3mwRM-91" style="edgeStyle=orthogonalEdgeStyle;rounded=0;orthogonalLoop=1;jettySize=auto;html=1;exitX=0.5;exitY=1;exitDx=0;exitDy=0;entryX=0.5;entryY=0;entryDx=0;entryDy=0;" edge="1" parent="1" source="UBKxjJVdo7yGN5d3mwRM-57" target="UBKxjJVdo7yGN5d3mwRM-90">
          <mxGeometry relative="1" as="geometry" />
        </mxCell>
        <mxCell id="UBKxjJVdo7yGN5d3mwRM-57" value="pedircodigo()" style="shape=parallelogram;perimeter=parallelogramPerimeter;whiteSpace=wrap;html=1;fixedSize=1;" vertex="1" parent="1">
          <mxGeometry x="50" y="410" width="160" height="40" as="geometry" />
        </mxCell>
        <mxCell id="UBKxjJVdo7yGN5d3mwRM-59" style="edgeStyle=orthogonalEdgeStyle;rounded=0;orthogonalLoop=1;jettySize=auto;html=1;exitX=1;exitY=0.5;exitDx=0;exitDy=0;entryX=0;entryY=0.5;entryDx=0;entryDy=0;" edge="1" parent="1" source="UBKxjJVdo7yGN5d3mwRM-16" target="UBKxjJVdo7yGN5d3mwRM-69">
          <mxGeometry relative="1" as="geometry">
            <mxPoint x="840" y="400" as="targetPoint" />
            <Array as="points">
              <mxPoint x="300" y="217" />
              <mxPoint x="300" y="440" />
            </Array>
          </mxGeometry>
        </mxCell>
        <mxCell id="UBKxjJVdo7yGN5d3mwRM-60" style="edgeStyle=orthogonalEdgeStyle;rounded=0;orthogonalLoop=1;jettySize=auto;html=1;exitX=1;exitY=0.5;exitDx=0;exitDy=0;entryX=0;entryY=0.5;entryDx=0;entryDy=0;" edge="1" parent="1" source="UBKxjJVdo7yGN5d3mwRM-15" target="UBKxjJVdo7yGN5d3mwRM-56">
          <mxGeometry relative="1" as="geometry">
            <Array as="points">
              <mxPoint x="270" y="243" />
              <mxPoint x="270" y="510" />
            </Array>
          </mxGeometry>
        </mxCell>
        <mxCell id="UBKxjJVdo7yGN5d3mwRM-62" value="VER: &quot;CARTELERA.DAT&quot;" style="rounded=0;whiteSpace=wrap;html=1;" vertex="1" parent="1">
          <mxGeometry x="430" y="330" width="160" height="60" as="geometry" />
        </mxCell>
        <mxCell id="UBKxjJVdo7yGN5d3mwRM-85" style="edgeStyle=orthogonalEdgeStyle;rounded=0;orthogonalLoop=1;jettySize=auto;html=1;exitX=0.5;exitY=1;exitDx=0;exitDy=0;entryX=0.5;entryY=0;entryDx=0;entryDy=0;" edge="1" parent="1" source="UBKxjJVdo7yGN5d3mwRM-69" target="UBKxjJVdo7yGN5d3mwRM-84">
          <mxGeometry relative="1" as="geometry" />
        </mxCell>
        <mxCell id="UBKxjJVdo7yGN5d3mwRM-69" value="SeleccionarPelicula()" style="rounded=0;whiteSpace=wrap;html=1;" vertex="1" parent="1">
          <mxGeometry x="760" y="410" width="160" height="60" as="geometry" />
        </mxCell>
        <mxCell id="UBKxjJVdo7yGN5d3mwRM-74" style="edgeStyle=orthogonalEdgeStyle;rounded=0;orthogonalLoop=1;jettySize=auto;html=1;exitX=0;exitY=0.5;exitDx=0;exitDy=0;entryX=1;entryY=0.5;entryDx=0;entryDy=0;" edge="1" parent="1" source="UBKxjJVdo7yGN5d3mwRM-71" target="UBKxjJVdo7yGN5d3mwRM-73">
          <mxGeometry relative="1" as="geometry">
            <Array as="points">
              <mxPoint x="720" y="600" />
              <mxPoint x="720" y="670" />
            </Array>
          </mxGeometry>
        </mxCell>
        <mxCell id="UBKxjJVdo7yGN5d3mwRM-78" style="edgeStyle=orthogonalEdgeStyle;rounded=0;orthogonalLoop=1;jettySize=auto;html=1;exitX=0.5;exitY=1;exitDx=0;exitDy=0;" edge="1" parent="1" source="UBKxjJVdo7yGN5d3mwRM-71" target="UBKxjJVdo7yGN5d3mwRM-75">
          <mxGeometry relative="1" as="geometry" />
        </mxCell>
        <mxCell id="UBKxjJVdo7yGN5d3mwRM-80" style="edgeStyle=orthogonalEdgeStyle;rounded=0;orthogonalLoop=1;jettySize=auto;html=1;exitX=1;exitY=0.5;exitDx=0;exitDy=0;entryX=1;entryY=0.5;entryDx=0;entryDy=0;" edge="1" parent="1" source="UBKxjJVdo7yGN5d3mwRM-71" target="UBKxjJVdo7yGN5d3mwRM-76">
          <mxGeometry relative="1" as="geometry">
            <Array as="points">
              <mxPoint x="970" y="600" />
              <mxPoint x="970" y="760" />
            </Array>
          </mxGeometry>
        </mxCell>
        <mxCell id="UBKxjJVdo7yGN5d3mwRM-71" value="llenardatos()" style="rounded=0;whiteSpace=wrap;html=1;" vertex="1" parent="1">
          <mxGeometry x="760" y="570" width="160" height="60" as="geometry" />
        </mxCell>
        <mxCell id="UBKxjJVdo7yGN5d3mwRM-82" style="edgeStyle=orthogonalEdgeStyle;rounded=0;orthogonalLoop=1;jettySize=auto;html=1;exitX=0;exitY=0.5;exitDx=0;exitDy=0;entryX=0.5;entryY=0;entryDx=0;entryDy=0;" edge="1" parent="1" source="UBKxjJVdo7yGN5d3mwRM-73" target="UBKxjJVdo7yGN5d3mwRM-12">
          <mxGeometry relative="1" as="geometry">
            <Array as="points">
              <mxPoint x="-80" y="670" />
              <mxPoint x="-80" y="50" />
              <mxPoint x="130" y="50" />
            </Array>
          </mxGeometry>
        </mxCell>
        <mxCell id="UBKxjJVdo7yGN5d3mwRM-73" value="cancelar()" style="rounded=0;whiteSpace=wrap;html=1;" vertex="1" parent="1">
          <mxGeometry x="430" y="640" width="160" height="60" as="geometry" />
        </mxCell>
        <mxCell id="UBKxjJVdo7yGN5d3mwRM-79" style="edgeStyle=orthogonalEdgeStyle;rounded=0;orthogonalLoop=1;jettySize=auto;html=1;exitX=0.5;exitY=1;exitDx=0;exitDy=0;entryX=0.5;entryY=0;entryDx=0;entryDy=0;" edge="1" parent="1" source="UBKxjJVdo7yGN5d3mwRM-75" target="UBKxjJVdo7yGN5d3mwRM-76">
          <mxGeometry relative="1" as="geometry" />
        </mxCell>
        <mxCell id="UBKxjJVdo7yGN5d3mwRM-81" style="edgeStyle=orthogonalEdgeStyle;rounded=0;orthogonalLoop=1;jettySize=auto;html=1;exitX=0;exitY=0.5;exitDx=0;exitDy=0;entryX=1;entryY=0.5;entryDx=0;entryDy=0;" edge="1" parent="1" source="UBKxjJVdo7yGN5d3mwRM-75" target="UBKxjJVdo7yGN5d3mwRM-73">
          <mxGeometry relative="1" as="geometry">
            <Array as="points">
              <mxPoint x="740" y="670" />
              <mxPoint x="740" y="670" />
            </Array>
          </mxGeometry>
        </mxCell>
        <mxCell id="UBKxjJVdo7yGN5d3mwRM-75" value="aÃ±adircombos()" style="rounded=0;whiteSpace=wrap;html=1;" vertex="1" parent="1">
          <mxGeometry x="760" y="650" width="160" height="60" as="geometry" />
        </mxCell>
        <mxCell id="UBKxjJVdo7yGN5d3mwRM-88" style="edgeStyle=orthogonalEdgeStyle;rounded=0;orthogonalLoop=1;jettySize=auto;html=1;exitX=0;exitY=0.5;exitDx=0;exitDy=0;entryX=0.5;entryY=0;entryDx=0;entryDy=0;" edge="1" parent="1" source="UBKxjJVdo7yGN5d3mwRM-76" target="UBKxjJVdo7yGN5d3mwRM-12">
          <mxGeometry relative="1" as="geometry">
            <Array as="points">
              <mxPoint x="-80" y="760" />
              <mxPoint x="-80" y="50" />
              <mxPoint x="130" y="50" />
            </Array>
          </mxGeometry>
        </mxCell>
        <mxCell id="UBKxjJVdo7yGN5d3mwRM-76" value="imprimirticket()" style="rounded=0;whiteSpace=wrap;html=1;" vertex="1" parent="1">
          <mxGeometry x="760" y="730" width="160" height="60" as="geometry" />
        </mxCell>
        <mxCell id="UBKxjJVdo7yGN5d3mwRM-86" style="edgeStyle=orthogonalEdgeStyle;rounded=0;orthogonalLoop=1;jettySize=auto;html=1;exitX=0.5;exitY=1;exitDx=0;exitDy=0;entryX=0.5;entryY=0;entryDx=0;entryDy=0;" edge="1" parent="1" source="UBKxjJVdo7yGN5d3mwRM-84" target="UBKxjJVdo7yGN5d3mwRM-71">
          <mxGeometry relative="1" as="geometry" />
        </mxCell>
        <mxCell id="UBKxjJVdo7yGN5d3mwRM-84" value="seleccionarButaca()" style="rounded=0;whiteSpace=wrap;html=1;" vertex="1" parent="1">
          <mxGeometry x="760" y="490" width="160" height="60" as="geometry" />
        </mxCell>
        <mxCell id="UBKxjJVdo7yGN5d3mwRM-87" style="edgeStyle=orthogonalEdgeStyle;rounded=0;orthogonalLoop=1;jettySize=auto;html=1;exitX=1;exitY=0.5;exitDx=0;exitDy=0;entryX=1;entryY=0.5;entryDx=0;entryDy=0;" edge="1" parent="1" source="UBKxjJVdo7yGN5d3mwRM-54" target="UBKxjJVdo7yGN5d3mwRM-57">
          <mxGeometry relative="1" as="geometry">
            <mxPoint x="440" y="570" as="targetPoint" />
            <Array as="points">
              <mxPoint x="240" y="269" />
              <mxPoint x="240" y="430" />
            </Array>
          </mxGeometry>
        </mxCell>
        <mxCell id="UBKxjJVdo7yGN5d3mwRM-92" style="edgeStyle=orthogonalEdgeStyle;rounded=0;orthogonalLoop=1;jettySize=auto;html=1;exitX=0.5;exitY=1;exitDx=0;exitDy=0;entryX=0.5;entryY=0;entryDx=0;entryDy=0;" edge="1" parent="1" source="UBKxjJVdo7yGN5d3mwRM-90" target="UBKxjJVdo7yGN5d3mwRM-12">
          <mxGeometry relative="1" as="geometry">
            <mxPoint x="130.294117647059" y="120" as="targetPoint" />
            <Array as="points">
              <mxPoint x="130" y="610" />
              <mxPoint x="-20" y="610" />
              <mxPoint x="-20" y="50" />
              <mxPoint x="130" y="50" />
            </Array>
          </mxGeometry>
        </mxCell>
        <mxCell id="UBKxjJVdo7yGN5d3mwRM-90" value="ImprimirReserva()" style="rounded=0;whiteSpace=wrap;html=1;" vertex="1" parent="1">
          <mxGeometry x="50" y="490" width="160" height="60" as="geometry" />
        </mxCell>
        <mxCell id="UBKxjJVdo7yGN5d3mwRM-93" value="extir(0)" style="rounded=0;whiteSpace=wrap;html=1;" vertex="1" parent="1">
          <mxGeometry x="50" y="330" width="160" height="60" as="geometry" />
        </mxCell>
        <mxCell id="UBKxjJVdo7yGN5d3mwRM-94" style="edgeStyle=orthogonalEdgeStyle;rounded=0;orthogonalLoop=1;jettySize=auto;html=1;exitX=0;exitY=0.5;exitDx=0;exitDy=0;entryX=0;entryY=0.5;entryDx=0;entryDy=0;" edge="1" parent="1" source="UBKxjJVdo7yGN5d3mwRM-24" target="UBKxjJVdo7yGN5d3mwRM-93">
          <mxGeometry relative="1" as="geometry">
            <Array as="points">
              <mxPoint x="10" y="295" />
              <mxPoint x="10" y="360" />
            </Array>
          </mxGeometry>
        </mxCell>
        <mxCell id="UBKxjJVdo7yGN5d3mwRM-95" value="guardarpelicula()" style="rounded=0;whiteSpace=wrap;html=1;" vertex="1" parent="1">
          <mxGeometry x="760" y="26" width="160" height="60" as="geometry" />
        </mxCell>
        <mxCell id="UBKxjJVdo7yGN5d3mwRM-96" value="guardarcambios()" style="rounded=0;whiteSpace=wrap;html=1;" vertex="1" parent="1">
          <mxGeometry x="760" y="100" width="160" height="60" as="geometry" />
        </mxCell>
        <mxCell id="UBKxjJVdo7yGN5d3mwRM-98" value="eliminar()" style="rounded=0;whiteSpace=wrap;html=1;" vertex="1" parent="1">
          <mxGeometry x="760" y="180" width="160" height="60" as="geometry" />
        </mxCell>
        <mxCell id="UBKxjJVdo7yGN5d3mwRM-99" value="vaciar()" style="rounded=0;whiteSpace=wrap;html=1;" vertex="1" parent="1">
          <mxGeometry x="760" y="256" width="160" height="60" as="geometry" />
        </mxCell>
        <mxCell id="UBKxjJVdo7yGN5d3mwRM-100" value="llenar()" style="rounded=0;whiteSpace=wrap;html=1;" vertex="1" parent="1">
          <mxGeometry x="760" y="330" width="160" height="60" as="geometry" />
        </mxCell>
        <mxCell id="UBKxjJVdo7yGN5d3mwRM-101" style="edgeStyle=orthogonalEdgeStyle;rounded=0;orthogonalLoop=1;jettySize=auto;html=1;exitX=1;exitY=0.5;exitDx=0;exitDy=0;entryX=0;entryY=0.5;entryDx=0;entryDy=0;" edge="1" parent="1" source="UBKxjJVdo7yGN5d3mwRM-27" target="UBKxjJVdo7yGN5d3mwRM-98">
          <mxGeometry relative="1" as="geometry">
            <Array as="points">
              <mxPoint x="680" y="165" />
              <mxPoint x="680" y="210" />
            </Array>
          </mxGeometry>
        </mxCell>
        <mxCell id="UBKxjJVdo7yGN5d3mwRM-102" style="edgeStyle=orthogonalEdgeStyle;rounded=0;orthogonalLoop=1;jettySize=auto;html=1;exitX=1;exitY=0.5;exitDx=0;exitDy=0;entryX=0;entryY=0.5;entryDx=0;entryDy=0;" edge="1" parent="1" source="UBKxjJVdo7yGN5d3mwRM-27" target="UBKxjJVdo7yGN5d3mwRM-96">
          <mxGeometry relative="1" as="geometry">
            <Array as="points">
              <mxPoint x="680" y="165" />
              <mxPoint x="680" y="130" />
            </Array>
          </mxGeometry>
        </mxCell>
        <mxCell id="UBKxjJVdo7yGN5d3mwRM-103" style="edgeStyle=orthogonalEdgeStyle;rounded=0;orthogonalLoop=1;jettySize=auto;html=1;exitX=1;exitY=0.5;exitDx=0;exitDy=0;entryX=0;entryY=0.5;entryDx=0;entryDy=0;" edge="1" parent="1" source="UBKxjJVdo7yGN5d3mwRM-28" target="UBKxjJVdo7yGN5d3mwRM-99">
          <mxGeometry relative="1" as="geometry">
            <Array as="points">
              <mxPoint x="640" y="191" />
              <mxPoint x="640" y="286" />
            </Array>
          </mxGeometry>
        </mxCell>
        <mxCell id="UBKxjJVdo7yGN5d3mwRM-104" style="edgeStyle=orthogonalEdgeStyle;rounded=0;orthogonalLoop=1;jettySize=auto;html=1;exitX=1;exitY=0.5;exitDx=0;exitDy=0;entryX=0;entryY=0.5;entryDx=0;entryDy=0;" edge="1" parent="1" source="UBKxjJVdo7yGN5d3mwRM-28" target="UBKxjJVdo7yGN5d3mwRM-100">
          <mxGeometry relative="1" as="geometry">
            <Array as="points">
              <mxPoint x="640" y="191" />
              <mxPoint x="640" y="360" />
            </Array>
          </mxGeometry>
        </mxCell>
        <mxCell id="UBKxjJVdo7yGN5d3mwRM-105" value="TICKET" style="rounded=0;whiteSpace=wrap;html=1;" vertex="1" parent="1">
          <mxGeometry x="-535" y="430" width="210" height="30" as="geometry" />
        </mxCell>
        <mxCell id="UBKxjJVdo7yGN5d3mwRM-106" value="STRING NOMBRE&lt;br&gt;STRING APELLIDO&lt;br&gt;INT DNI&lt;br&gt;CHAR PELICULA[40]&lt;br&gt;INT SALA&lt;br&gt;INT BUTACAS[15][20]&lt;br&gt;HORAS HORARIO&lt;br&gt;FLOAT PRECIO&lt;br&gt;INT CODIGO" style="html=1;rounded=0;shadow=0;comic=0;labelBackgroundColor=none;strokeWidth=2;fontFamily=Verdana;fontSize=12;align=left;shape=mxgraph.ios7ui.horLines;" vertex="1" parent="1">
          <mxGeometry x="-535" y="490" width="210" height="250" as="geometry" />
        </mxCell>
        <mxCell id="UBKxjJVdo7yGN5d3mwRM-107" value="" style="endArrow=classic;html=1;exitX=1.025;exitY=0.124;exitDx=0;exitDy=0;exitPerimeter=0;" edge="1" parent="1" source="UBKxjJVdo7yGN5d3mwRM-5" target="UBKxjJVdo7yGN5d3mwRM-106">
          <mxGeometry width="50" height="50" relative="1" as="geometry">
            <mxPoint x="-595" y="660" as="sourcePoint" />
            <mxPoint x="-215" y="520" as="targetPoint" />
          </mxGeometry>
        </mxCell>
        <mxCell id="UBKxjJVdo7yGN5d3mwRM-108" value="" style="endArrow=classic;html=1;" edge="1" parent="1" source="UBKxjJVdo7yGN5d3mwRM-1">
          <mxGeometry width="50" height="50" relative="1" as="geometry">
            <mxPoint x="-265" y="570" as="sourcePoint" />
            <mxPoint x="-323" y="610" as="targetPoint" />
            <Array as="points">
              <mxPoint x="-200" y="390" />
              <mxPoint x="-200" y="680" />
            </Array>
          </mxGeometry>
        </mxCell>
        <mxCell id="UBKxjJVdo7yGN5d3mwRM-109" value="&lt;p style=&quot;line-height: 200% ; font-size: 50px&quot;&gt;CINEFLIX&lt;/p&gt;" style="text;html=1;strokeColor=none;fillColor=none;align=center;verticalAlign=middle;whiteSpace=wrap;rounded=0;" vertex="1" parent="1">
          <mxGeometry x="-1007.5" y="80" width="307.5" height="46" as="geometry" />
        </mxCell>
        <mxCell id="UBKxjJVdo7yGN5d3mwRM-110" value="&lt;font style=&quot;font-size: 20px&quot;&gt;ALAN GABRIEL VACA / ADRIEL ELIAN RASJIDO&lt;/font&gt;" style="text;html=1;strokeColor=none;fillColor=none;align=center;verticalAlign=middle;whiteSpace=wrap;rounded=0;" vertex="1" parent="1">
          <mxGeometry x="-760" y="100" width="520" height="20" as="geometry" />
        </mxCell>
      </root>
    </mxGraphModel>
  </diagram>
</mxfile>
